<?xml version="1.0" encoding="UTF-8"?><svg id="Layer_2" xmlns="http://www.w3.org/2000/svg" viewBox="0 0 71 71"><defs><style>.cls-1{fill:#29334d;}</style></defs><g id="Layer_1-2"><g><path class="cls-1" d="M38.94,56.11h-6.13c-.27,0-.49-.22-.49-.49v-15.64c0-.27-.22-.49-.49-.49l-15.6,.03c-.27,0-.49-.22-.49-.49v-6.13c0-.27,.22-.49,.49-.49l15.61-.03c.27,0,.49-.22,.49-.49v-15.57c0-.27,.22-.49,.49-.49h6.13c.27,0,.49,.22,.49,.49v15.62c0,.27,.22,.49,.49,.49h15.61c.27-.01,.49,.21,.49,.48v6.13c0,.27-.22,.49-.49,.49h-15.61c-.27,0-.49,.22-.49,.49v15.61c0,.27-.22,.49-.49,.49Z"/><path class="cls-1" d="M35.5,0C15.89,0,0,15.89,0,35.5s15.89,35.5,35.5,35.5,35.5-15.89,35.5-35.5S55.11,0,35.5,0Zm0,64.1c-15.79,0-28.6-12.8-28.6-28.6S19.71,6.9,35.5,6.9s28.6,12.8,28.6,28.6-12.8,28.6-28.6,28.6Z"/></g></g></svg>