<svg xmlns="http://www.w3.org/2000/svg" viewBox="0 0 755.88 521.49"><defs><style>.cls-1{fill:#667489;}.cls-2{fill:#0c496e;}</style></defs><g id="Layer_2" data-name="Layer 2"><g id="Layer_1-2" data-name="Layer 1"><path class="cls-1" d="M304.07,117.67c-8.32,1.46-12.34,8.43-15.07,13.17-1.57,2.72-2.29,5.35-3.67,10.49-2.61,9.76-1.39,9.81-3.55,18.32-1.29,5.09-3.07,10.34-2.29,17.44.24,2.22.77,4.88,2.62,5.21,2,.37,4.58-2.18,5.05-2.65a8.08,8.08,0,0,0,2.55-6,3.11,3.11,0,0,1,3.67-3.62c9.94.45,18.81,1,26.73,1.56,3.16.21,10.46.77,12.77,3.4a22.17,22.17,0,0,0,2.58,2.59,15.1,15.1,0,0,0,3.4,2.3c1.37.66,3.12,1.5,4.29,1.14s1.42-2.15,1.21-4.37c-.4-4.1-.59-6.15-2.69-9.57-4-6.54-1.1-8.93-5.41-22.61-3.41-10.82-5.24-16.32-11.75-20.84C322.85,122.48,313.53,116,304.07,117.67Zm12.91,13c.91.86,2.39,2.4,5.2,7.81a91.08,91.08,0,0,1,3.94,8.69,24.66,24.66,0,0,1,1.36,6.09A49.39,49.39,0,0,1,328,163a2.18,2.18,0,0,1-1.63,2.49,3.08,3.08,0,0,1-1.28,0c-4.66-.07-9.78-.3-15.27-.76-5.07-.43-9.76-1-14-1.65-.2,0-2.15-.52-2.57-1.73a1.44,1.44,0,0,1,0-.87c.35-3.2.79-5.88,1.16-7.85.9-4.81,1.18-4.4,3.61-14,.8-3.14,1.16-4.72,2.45-7,1.69-3,3.29-5.81,6.27-6.14C311,125,316.16,129.89,317,130.65Z"/><path class="cls-1" d="M329.24,99.2c2.59,1.15,4.09,3.14,3.89,5.2-.26,2.73-3.37,4.21-3.75,4.39l-22.89.15a8.81,8.81,0,0,1-3.84-1.72A4.46,4.46,0,0,1,301.3,102a35,35,0,0,0,2.45-6.11,32.34,32.34,0,0,0,1.19-6.11,4.31,4.31,0,0,0-2.6-3.47,8.65,8.65,0,0,0-3.82-.84L274.31,83a3.49,3.49,0,0,1-2.49,3.5,7.09,7.09,0,0,1-5.09,0c-2.87-1.22-2.71-4.75-1.37-7,1.94-3.19,6.74-4.23,7.57-4.41L299.64,75a8.05,8.05,0,0,0,3.79-1.77c1-1,1-1.91,1.22-3.49.66-6,2-7.4,2.43-7.86a5.29,5.29,0,0,1,3.79-1.77,4,4,0,0,1,2.63,1.33c0,3.91.07,7.82.1,11.73a2.84,2.84,0,0,0,0,1.74,3.07,3.07,0,0,0,1.29,1.73,5.85,5.85,0,0,0,2.56.86l29.25-.2a9.15,9.15,0,0,1,5-2.65,9.42,9.42,0,0,1,3.82,0,5.64,5.64,0,0,1,3.85,2.59c1.19,2.47-2.23,5-3.73,6.13a21.33,21.33,0,0,1-8.85,3.54l-26.71.18c-1.88.38-5.29,1.29-7.58,3.54-3.25,3.19-3.22,8.07-1.14,8.72a2.38,2.38,0,0,0,1.27,0Z"/><ellipse class="cls-1" cx="286.99" cy="105.86" rx="5.64" ry="4.31" transform="translate(-3.05 203.05) rotate(-38.77)"/><path class="cls-1" d="M283.67,26.31c-.54,15.47,17.07,29.72,25.85,28.58.68-.08,1.39-.27,10.09-6.16,6.22-4.22,9.33-6.32,10.07-7a20.61,20.61,0,0,0,6.12-16.6,20.53,20.53,0,0,0-4-12.17C328.26,8.08,319.27-.16,308.73,0,295,.22,284.08,14.58,283.67,26.31ZM315.21,8.67c4,2.11,10.88,5.69,12.9,12.11.77,2.46.5,4.28.1,7-.54,3.6-1.45,9.74-8.08,14.47-2.69,1.91-5.64,4-9.46,4-8.07-.13-14.07-9.79-15.51-16.45A20.27,20.27,0,0,1,300,13.13c1.69-2,5.28-6.23,10.09-6.17C311.19,7,312.42,7.21,315.21,8.67Z"/><path d="M139.63,264.54c1.65,6.79,9.88,10.16,15.49,12.45,3.21,1.31,6.32,1.94,12.41,3.13,11.56,2.27,11.64,1.27,21.71,3.15,6,1.13,12.25,2.65,20.69,2.12,2.64-.17,5.79-.55,6.21-2.05s-2.55-3.76-3.1-4.15a12.27,12.27,0,0,0-7.1-2.16c-2.2,0-3.91-.79-4.26-2a1.89,1.89,0,0,1,0-1c.63-8.07,1.39-15.28,2.12-21.71.28-2.56,1-8.5,4.16-10.34a24.83,24.83,0,0,0,3.11-2.06,13.48,13.48,0,0,0,2.76-2.73c.79-1.1,1.8-2.51,1.39-3.47s-2.53-1.18-5.17-1c-4.87.25-7.31.38-11.39,2-7.8,3.17-10.61.77-26.9,4.07-12.87,2.62-19.42,4-24.85,9.26C145.53,249.34,137.76,256.83,139.63,264.54Zm15.54-10.31c1-.73,2.87-1.91,9.32-4.11,2.62-.9,6.13-2,10.35-3.08a41.27,41.27,0,0,1,7.25-1,85,85,0,0,1,11.54-.3,2.73,2.73,0,0,1,2.94,1.37,1.66,1.66,0,0,1,0,1,122.61,122.61,0,0,1-1.06,12.41c-.56,4.12-1.29,7.92-2.09,11.38a3.26,3.26,0,0,1-2.08,2.06,2.37,2.37,0,0,1-1,0c-3.8-.33-7-.73-9.31-1.06-5.71-.8-5.21-1-16.54-3.14a38.19,38.19,0,0,1-8.27-2.09c-3.54-1.42-6.87-2.76-7.23-5.19C148.43,259,154.26,254.89,155.17,254.23Z"/><path d="M118,243.8a6.86,6.86,0,0,1,6.21-3.09,7.13,7.13,0,0,1,5.17,3.12l-.05,18.62a6.37,6.37,0,0,1-2.07,3.1,7.13,7.13,0,0,1-6.21,1,54.09,54.09,0,0,0-7.24-2.09,55,55,0,0,0-7.23-1.05,5.56,5.56,0,0,0-4.15,2.06,5.3,5.3,0,0,0-1,3.1L98.2,288.24a4.4,4.4,0,0,1,4.14,2.08,4.09,4.09,0,0,1,0,4.13c-1.48,2.32-5.67,2.14-8.28,1-3.77-1.62-5-5.54-5.16-6.22l0-21.72a5.92,5.92,0,0,0-2.06-3.11c-1.15-.84-2.26-.88-4.14-1-7.15-.63-8.77-1.7-9.3-2.09s-2.22-1.62-2.06-3.11a3.16,3.16,0,0,1,1.6-2.12l13.92.09a5,5,0,0,0,2.07,0,3.9,3.9,0,0,0,2.07-1,3.74,3.74,0,0,0,1-2.07l0-23.79A7.27,7.27,0,0,1,89,225.12a5.22,5.22,0,0,1,0-3.1,5,5,0,0,1,3.12-3.1c2.93-.93,5.93,1.89,7.23,3.12a14.75,14.75,0,0,1,4.12,7.25L103.46,251a11.35,11.35,0,0,0,4.12,6.22c3.76,2.69,9.55,2.73,10.35,1.06a1.43,1.43,0,0,0,0-1Z"/><ellipse cx="125.45" cy="278.26" rx="3.93" ry="5.97" transform="translate(-178.86 302.04) rotate(-70.2)"/><path d="M31,279.81c18.34.66,35.44-13.45,34.18-20.61-.1-.55-.32-1.13-7.22-8.29-4.94-5.12-7.41-7.68-8.26-8.3-7.48-5.4-16.21-5.26-19.64-5.21a32.5,32.5,0,0,0-14.49,3.07C9.78,243.28-.09,250.47,0,259.05.12,270.21,17.06,279.31,31,279.81ZM10.36,253.9c2.54-3.24,6.86-8.76,14.5-10.31,2.93-.59,5.08-.34,8.28,0,4.26.49,11.54,1.32,17.08,6.78,2.25,2.21,4.72,4.64,4.61,7.75-.24,6.56-11.77,11.3-19.69,12.37a32.74,32.74,0,0,1-19.64-4.18C13.15,264.92,8.16,262,8.28,258,8.31,257.15,8.6,256.15,10.36,253.9Z"/><path d="M313.08,403.82c8.32-1.46,12.33-8.43,15.07-13.17,1.57-2.72,2.29-5.35,3.66-10.48,2.62-9.76,1.39-9.82,3.55-18.33,1.3-5.09,3.08-10.34,2.3-17.44-.25-2.22-.77-4.88-2.62-5.21-2-.36-4.58,2.18-5.05,2.65a8.15,8.15,0,0,0-2.56,6,3.29,3.29,0,0,1-2.39,3.62,3.49,3.49,0,0,1-1.27,0c-9.94-.46-18.82-1-26.74-1.57-3.15-.21-10.45-.76-12.77-3.39a21.06,21.06,0,0,0-2.58-2.6,15.38,15.38,0,0,0-3.39-2.3c-1.37-.66-3.13-1.5-4.29-1.13s-1.42,2.14-1.21,4.36c.39,4.1.59,6.15,2.68,9.57,4,6.54,1.11,8.93,5.42,22.62,3.4,10.81,5.24,16.31,11.75,20.83C294.3,399,303.62,405.48,313.08,403.82Zm-12.91-13c-.92-.86-2.4-2.4-5.2-7.81a87.56,87.56,0,0,1-3.94-8.69,24.66,24.66,0,0,1-1.36-6.09,49.28,49.28,0,0,1-.55-9.72,2.17,2.17,0,0,1,1.64-2.48,2.83,2.83,0,0,1,1.27,0c4.67.07,9.79.3,15.28.77,5.07.43,9.75,1,14,1.64.2.05,2.16.52,2.57,1.73a1.37,1.37,0,0,1,0,.87c-.35,3.2-.79,5.88-1.16,7.85-.91,4.82-1.19,4.4-3.62,14-.79,3.13-1.15,4.71-2.44,7-1.69,3-3.29,5.82-6.27,6.15C306.14,396.47,301,391.6,300.17,390.84Z"/><path d="M287.9,422.29c-2.59-1.15-4.08-3.14-3.89-5.2.26-2.73,3.38-4.21,3.76-4.38l22.89-.16a8.91,8.91,0,0,1,3.84,1.72,4.46,4.46,0,0,1,1.35,5.22,35,35,0,0,0-2.46,6.11,32.26,32.26,0,0,0-1.18,6.11,4.25,4.25,0,0,0,2.59,3.47,8.71,8.71,0,0,0,3.83.84l24.2,2.45c-.17-1.44.8-2.8,2.5-3.5a7.09,7.09,0,0,1,5.09,0c2.86,1.22,2.71,4.75,1.37,7-1.94,3.19-6.74,4.24-7.57,4.41l-26.71.18a8.15,8.15,0,0,0-3.79,1.77c-1,1-1.05,1.91-1.22,3.49-.67,6-2,7.41-2.43,7.86a5.29,5.29,0,0,1-3.79,1.77,4,4,0,0,1-2.63-1.33c0-3.91-.07-7.82-.11-11.72a2.86,2.86,0,0,0,0-1.75,3.05,3.05,0,0,0-1.3-1.73,5.65,5.65,0,0,0-2.55-.85l-29.26.19a10.11,10.11,0,0,1-8.86,2.68,5.66,5.66,0,0,1-3.86-2.59c-1.18-2.46,2.24-5,3.73-6.12a21.33,21.33,0,0,1,8.85-3.55l26.71-.18c1.89-.38,5.3-1.29,7.58-3.54,3.25-3.19,3.22-8.07,1.15-8.72a2.37,2.37,0,0,0-1.27,0Z"/><ellipse cx="330.16" cy="415.63" rx="5.64" ry="4.31" transform="translate(-187.53 298.34) rotate(-38.77)"/><path d="M333.48,495.18c.54-15.46-17.07-29.72-25.85-28.58-.68.09-1.39.28-10.09,6.17-6.22,4.21-9.33,6.31-10.08,7a23.24,23.24,0,0,0-2.12,28.77c3.55,4.83,12.54,13.07,23.08,12.91C322.14,521.28,333.07,506.91,333.48,495.18Zm-31.55,17.64c-4-2.11-10.88-5.69-12.89-12.11-.77-2.46-.5-4.27-.1-7,.53-3.6,1.44-9.74,8.07-14.46,2.69-1.92,5.64-4,9.47-4,8.07.13,14.06,9.79,15.5,16.45a20.18,20.18,0,0,1-4.85,16.59c-1.69,2-5.27,6.23-10.08,6.17C306,514.51,304.72,514.28,301.93,512.82Z"/><path d="M420.68,159.12c-7.43-1.61-13.3.72-24.76,5.45-14.49,6-15.12,9.6-23.06,11.09-4.15.77-6.09,2-10,4.41-2.1,1.32-3.59,2.55-3.28,3.73s1.95,1.74,3.25,2.28a13.74,13.74,0,0,0,3.82.87,23.33,23.33,0,0,0,3.67.11c3.4-.1,9.68,6.76,9.68,6.76,1.63,1.8,4.17,4.58,8,8.71l26.57,6.35c1.56-1.35,3.36-3,5.31-4.91,2.53-2.49,4.4-4.56,5.3-5.58,3.89-4.36,5.86-6.59,7.48-9.49,2.83-5.06,7-12.48,4-19.31C433.21,161.83,422.58,159.53,420.68,159.12Zm7.57,13.76c1.26,2.32-.44,5.3-2.23,8.47a32.48,32.48,0,0,1-5,6.32c-7.3,8-6.78,7.94-10.62,11.76-1.58,1.56-3.74,3.63-6.43,6a9,9,0,0,1-3.66-.11c-4-1-5.35-5.08-8.77-8.8-3.27-3.56-6.13-7-8.62-10.26a2,2,0,0,1-.66-.9,2.47,2.47,0,0,1,1.38-2.79,70.18,70.18,0,0,1,9-6,34.79,34.79,0,0,1,6.16-3.05c3.9-1.36,7.27-2.3,9.83-2.95,6.3-1.59,8.45-1.56,9.69-1.48S426.46,169.55,428.25,172.88Z"/><path d="M439.67,142.16a6.24,6.24,0,0,0-6.53,1.53,6.65,6.65,0,0,0-1.25,5.75L445.64,164a6.93,6.93,0,0,0,3.7,1.11,5.92,5.92,0,0,0,5-3.16A45.69,45.69,0,0,1,462,150.29a5,5,0,0,1,4.36-1,6.19,6.19,0,0,1,3,1.77L486,164.46a4,4,0,0,0-1.3,4.27A5,5,0,0,0,487.7,172c2.73.88,5.47-1.93,6.43-4.48,1.39-3.68-.68-7.52-1.05-8.17l-16-17a6.56,6.56,0,0,1-.88-3.76c.17-1.39.91-2.13,2.07-3.46,4.44-5,4.76-6.92,4.84-7.57s.33-2.68-.88-3.76a3.36,3.36,0,0,0-2.66-.64L470.06,132a4,4,0,0,1-1.41,1.33,3.56,3.56,0,0,1-2.18.51,4.4,4.4,0,0,1-2.24-1l-17.56-18.65a7.74,7.74,0,0,0-.93-5.23,6.48,6.48,0,0,0-2.29-2.43,5.11,5.11,0,0,0-4.42-.45c-2.69,1.14-2.67,5.26-2.66,7.06a16.51,16.51,0,0,0,2.52,8.32l16,17a12.34,12.34,0,0,1,1.76,7.52c-.6,4.5-4.54,8.23-6.32,7.42a1.75,1.75,0,0,1-.76-.81Z"/><ellipse cx="459.92" cy="174" rx="5.71" ry="4.15" transform="translate(145.83 552.35) rotate(-71.02)"/><path d="M536.71,84.92c-5.34-7.54-17.38-8.44-23.56-7.75a27.29,27.29,0,0,0-13,5.2c-2.65,1.83-9.38,6.47-11.68,15.26-.26,1-.53,4.58-1.06,11.74-.75,10-.56,10.63-.28,11.17,3.55,6.94,25.46,10,39-.61C536.47,111.91,543.65,94.74,536.71,84.92Zm-7,3.62c2.56,3.36.63,8.67-.28,11.18a27.18,27.18,0,0,1-12.33,14.35c-6.71,3.37-18.47,5.51-22.78-.08-2-2.66-1.7-6.12-1.38-9.28.79-7.79,5.81-12.48,8.75-15.23C504,87.42,505.43,86,508,85c6.8-2.81,13.57-.34,17.55,1.11C528.33,87.07,529.18,87.78,529.76,88.54Z"/><path d="M192.35,164.6c-.5,7.58,2.67,13.05,9,23.68,8.05,13.46,11.73,13.55,14.36,21.19,1.38,4,2.87,5.72,5.83,9.2,1.61,1.88,3.06,3.18,4.18,2.69s1.43-2.18,1.77-3.54a13.57,13.57,0,0,0,.3-3.91,21.88,21.88,0,0,0-.43-3.64c-.62-3.51,3.48-8.45,5.27-10.57,4.49-5.32,9.55-11.25,15.37-17.75a2.48,2.48,0,0,1,.79-.78c1.17-.67,2.92-.14,4.32,1.37a10.43,10.43,0,0,0,6.29,3.16c.66.08,4.25.5,5.21-1s-.87-3.82-2.45-5.73c-5.08-6.08-10.3-9.12-15.09-12.34-8-5.37-7.29-6.17-16.56-12.25-4.88-3.2-7.39-4.83-10.49-6-5.42-2.06-13.37-5.07-19.68-1.08C193.2,151.81,192.48,162.66,192.35,164.6Zm12.5-9.52c2.11-1.58,5.31-.34,8.71,1a32.37,32.37,0,0,1,7,4c9,6,8.85,5.55,13.18,8.78,1.78,1.33,4.15,3.17,6.87,5.48a2,2,0,0,1,.68.69A3.36,3.36,0,0,1,241,178c-2.14,3.14-4.6,6.49-7.41,10-3,3.76-6,7.1-8.88,10a2.21,2.21,0,0,1-.8.78,2.47,2.47,0,0,1-3-.95,68.89,68.89,0,0,1-7.28-8,33.23,33.23,0,0,1-3.93-5.64c-1.92-3.66-3.35-6.85-4.36-9.29-2.5-6-2.79-8.13-2.89-9.37S201.82,157.35,204.85,155.08Z"/><path d="M168.15,147.6a5.71,5.71,0,0,0,1.3,6.46c2.32,2.14,5.69,1.69,6.09,1.63l16.37-12.3a6.37,6.37,0,0,0,1.39-3.52c.14-3.22-2.82-4.92-3.13-5.09a53,53,0,0,1-6.52-3.78,48.63,48.63,0,0,1-5.61-4.47,4.54,4.54,0,0,1-.87-4.3,6,6,0,0,1,2.06-2.79l15.26-15.18a4.57,4.57,0,0,0,4.51,1.58,5.1,5.1,0,0,0,3.64-2.74c1.08-2.58-1.79-5.44-4.47-6.56-3.87-1.62-8.09.11-8.81.42l-19.11,14.35a7.54,7.54,0,0,1-4.07.57c-1.49-.26-2.24-1-3.6-2.25-5.18-4.68-7.17-5.13-7.86-5.25s-2.86-.52-4.08.57a3.06,3.06,0,0,0-.83,2.54l9.09,9.86a4.18,4.18,0,0,1,1.35,1.47,3.22,3.22,0,0,1,.43,2.15,4,4,0,0,1-1.15,2.1l-20.92,15.71a9,9,0,0,0-5.65.53,6.48,6.48,0,0,0-2.73,2.05,4.55,4.55,0,0,0-.71,4.25c1.08,2.71,5.5,3,7.43,3.1a18.94,18.94,0,0,0,9.05-1.84l19.11-14.34a14.26,14.26,0,0,1,8.14-1.16c4.8.9,8.59,5,7.63,6.67a1.79,1.79,0,0,1-.91.68Z"/><ellipse cx="203.35" cy="130.24" rx="4.05" ry="6.11" transform="translate(14.56 280.8) rotate(-71.21)"/><path d="M101.91,60.74c-6.67,6.38-5.8,18.43-4.21,24.44a27.27,27.27,0,0,0,7.06,12.06c2.19,2.36,7.77,8.33,16.8,9.31,1,.11,4.61-.15,11.77-.67,10-.73,10.6-1,11.1-1.37,6.34-4.53,6.1-26.65-6.35-38.51C128.63,57,110.6,52.43,101.91,60.74Zm4.6,6.33c2.94-3,8.48-1.89,11.1-1.36a27.14,27.14,0,0,1,16,10.08c4.33,6.14,8.17,17.46,3.27,22.55-2.33,2.42-5.8,2.58-9,2.73-7.82.37-13.19-3.91-16.34-6.41-2.36-1.89-4-3.15-5.4-5.56-3.78-6.31-2.33-13.37-1.48-17.52C105.27,68.71,105.85,67.76,106.51,67.07Z"/><path d="M194.86,357.4c7.46,1.46,13.29-1,24.64-6,14.36-6.28,14.91-9.92,22.82-11.57,4.14-.86,6.05-2.12,9.87-4.62,2.07-1.36,3.53-2.63,3.2-3.8s-2-1.7-3.29-2.21a14.2,14.2,0,0,0-3.84-.79,22.79,22.79,0,0,0-3.67,0c-3.56.17-8-4.52-9.82-6.56-4.72-5.13-10-10.9-15.67-17.49a2.37,2.37,0,0,1-.67-.89c-.52-1.23.23-2.91,1.91-4.11a10.44,10.44,0,0,0,3.92-5.84c.16-.64,1-4.15-.37-5.3s-3.9.38-6,1.72c-6.67,4.27-10.34,9.06-14.14,13.41-6.34,7.27-7,6.45-14.25,14.88-3.79,4.44-5.72,6.72-7.27,9.65-2.72,5.11-6.72,12.62-3.55,19.38C182.28,355,193,357,194.86,357.4ZM187,343.8c-1.3-2.29.33-5.31,2.06-8.51a32.91,32.91,0,0,1,4.85-6.43c7.13-8.17,6.62-8.08,10.38-12,1.54-1.6,3.66-3.72,6.29-6.13a2.12,2.12,0,0,1,.78-.58c1.28-.53,2.74.51,2.89.61,2.84,2.52,5.85,5.38,8.94,8.61,3.35,3.49,6.29,6.89,8.85,10.08a2,2,0,0,1,.67.89,2.47,2.47,0,0,1-1.32,2.82,71.25,71.25,0,0,1-8.85,6.21,34,34,0,0,1-6.09,3.18c-3.88,1.45-7.22,2.46-9.77,3.16-6.26,1.72-8.41,1.73-9.65,1.68S188.87,347.09,187,343.8Z"/><path d="M176.23,374.76a6.22,6.22,0,0,0,6.5-1.68,6.62,6.62,0,0,0,1.13-5.76L169.81,353a7.11,7.11,0,0,0-3.73-1,6,6,0,0,0-4.94,3.26,44.84,44.84,0,0,1-7.37,11.86,5,5,0,0,1-4.33,1.11,6.24,6.24,0,0,1-3-1.71l-16.91-13.07a3.93,3.93,0,0,0,1.21-4.29,5,5,0,0,0-3.12-3.18c-2.74-.82-5.42,2.05-6.33,4.61-1.31,3.71.84,7.51,1.22,8.15l16.39,16.69a6.56,6.56,0,0,1,1,3.74c-.14,1.4-.86,2.15-2,3.5-4.33,5.15-4.61,7-4.68,7.68s-.27,2.68,1,3.73a3.37,3.37,0,0,0,2.67.59l9.29-9.14a4,4,0,0,1,1.39-1.35,3.42,3.42,0,0,1,2.16-.56,4.28,4.28,0,0,1,2.26.91l17.95,18.28a7.75,7.75,0,0,0,1,5.21,6.42,6.42,0,0,0,2.34,2.38,5.2,5.2,0,0,0,4.43.36c2.67-1.21,2.56-5.33,2.51-7.12a16.64,16.64,0,0,0-2.69-8.27l-16.39-16.69a12.42,12.42,0,0,1-1.91-7.47c.5-4.52,4.36-8.33,6.15-7.56a1.72,1.72,0,0,1,.78.8Z"/><ellipse cx="155.32" cy="343.35" rx="5.71" ry="4.15" transform="translate(-219.06 386.47) rotate(-72.23)"/><path d="M80.42,434c5.49,7.42,17.56,8.08,23.72,7.26A27.32,27.32,0,0,0,117,435.8c2.6-1.88,9.24-6.66,11.35-15.49.24-1,.43-4.59.82-11.76.54-10,.33-10.65,0-11.18-3.69-6.87-25.67-9.42-39,1.43C80.09,407,73.27,424.35,80.42,434Zm6.87-3.77c-2.63-3.29-.81-8.65,0-11.17a27.18,27.18,0,0,1,12-14.61c6.63-3.52,18.35-5.9,22.78-.4,2.1,2.62,1.82,6.09,1.57,9.25-.62,7.81-5.54,12.6-8.42,15.41-2.17,2.1-3.62,3.52-6.2,4.65-6.73,2.95-13.55.63-17.56-.74C88.75,431.7,87.88,431,87.29,430.25Z"/><path d="M423.72,350.09c.37-8-3.28-14.4-8.62-23.84-2.43-4.27-5.38-8.33-5.38-8.33-1.65-2.27-3.18-4.14-4.42-5.58L380.2,316l-11.85,15.77a2.45,2.45,0,0,1-.81.77c-1.17.65-2.92.09-4.29-1.45a10.51,10.51,0,0,0-6.24-3.26c-.65-.09-4.24-.57-5.23.94s.81,3.84,2.36,5.77c5,6.17,10.14,9.3,14.88,12.59,7.92,5.51,7.19,6.3,16.35,12.54,4.83,3.28,7.3,4.95,10.39,6.18s12.45,5.49,19.65,1.41C423.13,362.9,423.64,351.85,423.72,350.09Zm-12.66,9.3c-2.13,1.54-5.31.25-8.68-1.12a32.18,32.18,0,0,1-6.93-4.12c-8.9-6.19-8.75-5.69-13-9-1.75-1.36-4.09-3.23-6.78-5.59a1.91,1.91,0,0,1-.66-.71,3.36,3.36,0,0,1,.29-2.94c2.2-3.1,4.71-6.4,7.58-9.83,3.11-3.71,6.16-7,9-9.89a2,2,0,0,1,.81-.76,2.46,2.46,0,0,1,3,1,69.79,69.79,0,0,1,7.14,8.12,34,34,0,0,1,3.83,5.71c1.86,3.69,3.23,6.9,4.2,9.35,2.4,6.05,2.65,8.18,2.73,9.42S414.13,357.17,411.06,359.39Z"/><path d="M447.64,367.49a5.71,5.71,0,0,0-1.2-6.48c-2.28-2.18-5.65-1.78-6.06-1.73l-16.58,12a6.34,6.34,0,0,0-1.44,3.49c-.2,3.22,2.73,5,3,5.15a51.62,51.62,0,0,1,6.45,3.89,47.38,47.38,0,0,1,5.54,4.56,4.57,4.57,0,0,1,.8,4.32,6,6,0,0,1-2.11,2.75l-15.52,14.92a4.57,4.57,0,0,0-4.48-1.65,5.06,5.06,0,0,0-3.68,2.67c-1.13,2.56,1.69,5.47,4.35,6.64,3.85,1.68,8.1,0,8.82-.28l19.35-14a7.52,7.52,0,0,1,4.08-.51c1.48.28,2.22,1.07,3.56,2.32,5.1,4.76,7.09,5.24,7.77,5.38s2.85.56,4.09-.51a3,3,0,0,0,.87-2.52l-8.92-10a4.11,4.11,0,0,1-1.32-1.5,3.14,3.14,0,0,1-.4-2.16,4,4,0,0,1,1.18-2.08L477,376.81a9.07,9.07,0,0,0,5.66-.43,6.48,6.48,0,0,0,2.76-2,4.57,4.57,0,0,0,.79-4.24c-1-2.73-5.46-3.07-7.38-3.23a19,19,0,0,0-9.09,1.69l-19.34,14a14.34,14.34,0,0,1-8.16,1c-4.79-1-8.5-5.15-7.52-6.8a1.84,1.84,0,0,1,.92-.67Z"/><ellipse cx="412.15" cy="384.26" rx="4.05" ry="6.11" transform="translate(-88.82 642.23) rotate(-70.24)"/><path d="M512.39,455.47c6.78-6.27,6.11-18.34,4.63-24.37a27.21,27.21,0,0,0-6.86-12.18c-2.15-2.39-7.63-8.46-16.64-9.59-1-.13-4.61.07-11.78.47-10,.56-10.62.84-11.11,1.18-6.42,4.42-6.56,26.54,5.69,38.61C485.61,458.75,503.57,463.63,512.39,455.47Zm-4.49-6.42c-3,3-8.51,1.75-11.12,1.18A27.19,27.19,0,0,1,481,439.88c-4.22-6.22-7.87-17.6-2.89-22.61,2.37-2.37,5.85-2.47,9-2.57,7.82-.24,13.12,4.13,16.23,6.69,2.33,1.92,3.9,3.21,5.3,5.65,3.67,6.37,2.11,13.4,1.19,17.54C509.17,447.44,508.58,448.38,507.9,449.05Z"/><path class="cls-2" d="M451.14,246.63c-3.63-14.81-21.61-22.11-33.86-27.09-7-2.85-13.8-4.2-27.09-6.77-25.24-4.89-25.4-2.72-47.4-6.78-13.18-2.42-26.75-5.72-45.15-4.51-5.76.38-12.64,1.24-13.54,4.51-1,3.56,5.57,8.19,6.77,9a26.89,26.89,0,0,0,15.51,4.69c4.8-.1,8.55,1.7,9.32,4.34a4.34,4.34,0,0,1,0,2.26c-1.35,17.62-3,33.36-4.52,47.4-.61,5.59-2.17,18.54-9,22.58a52.46,52.46,0,0,0-6.78,4.51,29.56,29.56,0,0,0-6,6c-1.72,2.41-3.92,5.51-3,7.59,1,2.3,5.53,2.57,11.29,2.25,10.63-.59,15.94-.88,24.83-4.51,17-6.95,23.16-1.74,58.69-9,28.08-5.77,42.36-8.88,54.18-20.32C438.35,279.82,455.27,263.45,451.14,246.63ZM417.28,269.2c-2.24,1.6-6.25,4.19-20.32,9-5.7,2-13.35,4.4-22.57,6.77-6.5,1.67-11.61,1.85-15.8,2.26a186.91,186.91,0,0,1-25.19.71c-3.16.26-5.75-1-6.41-3a3.68,3.68,0,0,1,0-2.26,271.47,271.47,0,0,1,2.25-27.08c1.21-9,2.78-17.29,4.52-24.84.12-.35,1.38-3.81,4.51-4.51a5.35,5.35,0,0,1,2.26,0c8.29.7,15.21,1.55,20.32,2.26,12.45,1.73,11.37,2.21,36.11,6.77,8.11,1.49,12.2,2.17,18.06,4.51,7.72,3.09,15,6,15.8,11.29C432,258.74,419.28,267.77,417.28,269.2Z"/><path class="cls-2" d="M498.54,291.77A15,15,0,0,1,485,298.54c-7.07-.53-10.85-6.1-11.29-6.77V251.14a13.92,13.92,0,0,1,4.52-6.77c5.66-4.54,12.82-2.48,13.54-2.26a118.16,118.16,0,0,0,31.6,6.77,12.11,12.11,0,0,0,9-4.51,11.5,11.5,0,0,0,2.26-6.77q3.39-21.45,6.77-42.89a9.58,9.58,0,0,1-9-4.52,8.94,8.94,0,0,1,0-9c3.22-5.06,12.36-4.69,18.06-2.25,8.24,3.52,10.86,12.06,11.29,13.54v47.4a13,13,0,0,0,4.51,6.78c2.51,1.83,4.94,1.9,9,2.25,15.61,1.34,19.15,3.67,20.32,4.52,1.33,1,4.84,3.51,4.51,6.77-.26,2.52-2.67,4.13-3.48,4.63l-30.38-.12a10.76,10.76,0,0,0-4.51,0,8.66,8.66,0,0,0-4.52,2.26,8.25,8.25,0,0,0-2.26,4.52v51.91a15.93,15.93,0,0,1,6.78,9,11.45,11.45,0,0,1,0,6.78A11,11,0,0,1,555,346c-6.4,2-12.94-4.1-15.8-6.77a32.3,32.3,0,0,1-9-15.81V276c-.93-3.36-3.24-9.42-9-13.54-8.22-5.85-20.85-5.92-22.58-2.26a3.09,3.09,0,0,0,0,2.26Z"/><ellipse class="cls-2" cx="482.03" cy="216.62" rx="8.58" ry="13.04" transform="translate(115.82 597.63) rotate(-70.33)"/><path class="cls-2" d="M688.16,212.77c-40-1.36-77.29,29.53-74.5,45.14.22,1.21.7,2.47,15.81,18.06,10.8,11.15,16.2,16.73,18,18.06,16.35,11.75,35.4,11.42,42.89,11.29,6.92-.12,18.71-.45,31.61-6.78,12.59-6.17,34.09-21.91,33.86-40.63C755.56,233.55,718.54,213.79,688.16,212.77ZM731,268.31c-11,14-26.83,18.57-30.35,19.51A55.06,55.06,0,0,1,683.27,290c-4.92-.21-22.08-1.63-34.69-15.18-4.77-5.13-8.77-9.43-8.67-15.18.24-13.59,23.27-23.88,39.22-26.55,2-.34,24-3.7,42.89,9,4.17,2.82,13.74,9.28,13.28,17.52C735.23,260.92,734.86,263.35,731,268.31Z"/></g></g></svg>