<svg xmlns="http://www.w3.org/2000/svg" viewBox="0 0 73.17 71.68"><defs><style>.cls-1{fill:#29344c;}</style></defs><g id="Layer_2" data-name="Layer 2"><g id="Layer_1-2" data-name="Layer 1"><ellipse class="cls-1" cx="36.64" cy="56.44" rx="5.84" ry="5.72"/><path class="cls-1" d="M36.59,0C16.38,0,0,16.05,0,35.84S16.38,71.68,36.59,71.68,73.17,55.63,73.17,35.84,56.79,0,36.59,0Zm0,66.55c-17.35,0-31.41-13.77-31.41-30.76S19.29,5,36.64,5,68,18.8,68,35.79,54,66.55,36.64,66.55Z"/><path class="cls-1" d="M32.68,45.87a.49.49,0,0,1-.49-.47,20.66,20.66,0,0,1,2.33-10.48c2.63-4.87,6.68-7.07,6.34-11.34A5.44,5.44,0,0,0,39.35,20c-1.91-1.82-5.4-1.76-7.69-.29a6.44,6.44,0,0,0-1.86,1.9.51.51,0,0,1-.64.18l-6.1-3a.47.47,0,0,1-.21-.67A14.71,14.71,0,0,1,27,13.59c5.75-4.05,15.5-4.4,20.29,1a13.18,13.18,0,0,1,2.42,12.32c-1.72,5.26-6.46,6.29-8.56,12.82a17.66,17.66,0,0,0-.82,5.71.48.48,0,0,1-.5.49Z"/></g></g></svg>