<svg xmlns="http://www.w3.org/2000/svg" viewBox="0 0 179.81 138.81"><defs><style>.cls-1{fill:#0c4e3b;}.cls-2{fill:#2491ae;}.cls-3{fill:#67a221;}.cls-4{fill:#29344c;}</style></defs><g id="Layer_2" data-name="Layer 2"><g id="Layer_1-2" data-name="Layer 1"><path class="cls-1" d="M42.27,43.74H27.92a1.86,1.86,0,0,0-1.86,1.84l0,2.55a1.87,1.87,0,0,0,.71,1.54c3.86,2.95,4.46,8.45,1.74,11.73a8.17,8.17,0,0,1-12.12,0c-2.68-3.27-2-8.79,1.91-11.73A2,2,0,0,0,19,48.12l0-2.49a1.86,1.86,0,0,0-1.86-1.89H2.26A1.86,1.86,0,0,1,.41,41.67C1.06,36,3.77,22.16,15.87,11.45A47.27,47.27,0,0,1,42.07,0a1.86,1.86,0,0,1,2.06,1.85V8.71a1.85,1.85,0,0,1-2.38,1.78A12.16,12.16,0,0,0,33,33.14a12.31,12.31,0,0,0,8.68.49,1.86,1.86,0,0,1,2.42,1.77v6.48A1.86,1.86,0,0,1,42.27,43.74Z"/><path class="cls-2" d="M50.28,42V27.63a1.86,1.86,0,0,0-1.84-1.86l-2.55,0a1.87,1.87,0,0,0-1.54.71c-3,3.86-8.45,4.46-11.73,1.74a8.17,8.17,0,0,1,0-12.12c3.27-2.68,8.79-2,11.73,1.91a2,2,0,0,0,1.55.74l2.49,0a1.86,1.86,0,0,0,1.89-1.86V2A1.85,1.85,0,0,1,52.34.12c5.73.65,19.52,3.36,30.23,15.46A47.27,47.27,0,0,1,94,41.78a1.86,1.86,0,0,1-1.85,2.06H85.31a1.85,1.85,0,0,1-1.78-2.38,12.15,12.15,0,1,0-23.14,0,1.86,1.86,0,0,1-1.77,2.42H52.14A1.86,1.86,0,0,1,50.28,42Z"/><path class="cls-3" d="M98.27,58.07h14.35a1.86,1.86,0,0,0,1.86-1.84l0-2.55a1.91,1.91,0,0,0-.71-1.53c-3.87-2.95-4.47-8.45-1.74-11.74a8.16,8.16,0,0,1,12.11,0c2.68,3.27,2,8.8-1.9,11.74a2,2,0,0,0-.74,1.55l0,2.49a1.85,1.85,0,0,0,1.86,1.88h14.94a1.87,1.87,0,0,1,1.85,2.07c-.66,5.73-3.36,19.52-15.46,30.23a47.23,47.23,0,0,1-26.2,11.43A1.86,1.86,0,0,1,96.41,100V93.11a1.85,1.85,0,0,1,2.38-1.78,12.16,12.16,0,1,0,0-23.14,1.86,1.86,0,0,1-2.42-1.77V59.93A1.86,1.86,0,0,1,98.27,58.07Z"/><path class="cls-2" d="M43.74,51.74V66.09A1.86,1.86,0,0,0,45.58,68l2.55,0a1.93,1.93,0,0,0,1.54-.71c2.95-3.87,8.45-4.47,11.73-1.74a8.16,8.16,0,0,1,0,12.11c-3.27,2.68-8.79,2-11.73-1.9A2,2,0,0,0,48.12,75l-2.49,0a1.86,1.86,0,0,0-1.89,1.86V91.75a1.86,1.86,0,0,1-2.07,1.85C36,92.94,22.16,90.24,11.45,78.14A47.29,47.29,0,0,1,0,51.94a1.86,1.86,0,0,1,1.85-2.06H8.71a1.85,1.85,0,0,1,1.78,2.38A12.16,12.16,0,0,0,33.14,61a12.31,12.31,0,0,0,.49-8.68,1.86,1.86,0,0,1,1.77-2.42h6.48A1.86,1.86,0,0,1,43.74,51.74Z"/><path class="cls-4" d="M158,125.63a38.58,38.58,0,0,1,8.11.51c5.39.93,8.73,2.73,11.65,1a6.06,6.06,0,0,0,2-2V108.91a5.32,5.32,0,0,0-1-3.54,5.61,5.61,0,0,0-4.56-2l-33.44-4c-8.46-.86-12.28.52-14.19,2-1,.78-2.18,1.7-4.56,3.55a23.81,23.81,0,0,1-3.55,2.53,13.39,13.39,0,0,1-5.57,1.52l-13.17,1a30.14,30.14,0,0,0-8.61,2c-2.49,1-3.55,1.84-4.06,3a3.8,3.8,0,0,0,0,3c.58,1.07,1.75,1.44,4.7,2.08a54.55,54.55,0,0,0,6,1.15,159.44,159.44,0,0,0,16.17.32c3-.12,8.09-.3,14.69-.51-.36.13-.88.31-1.52.51A37.6,37.6,0,0,1,118,123.1c-4.22.27-7.45.27-10.25.27,0,0-6.44,0-11.78-.66l-.3,0-.47-.08c-2.83-.45-9.51-1.53-10.55-5-.51-1.68.47-3.33.92-4.11,2.27-3.85,7.14-4,7.6-4-2.85-1.83-13.9-8.67-18.24-5.07a3.45,3.45,0,0,0-.5.51,30.62,30.62,0,0,0-5.07-2.53c-2.36-.92-9.39-3.65-11.65-1-.41.47-1.05,1.56-.51,4.06,1.18.66,3,1.69,5.07,3,13.06,8.32,12.66,12,21.78,17.22,5.82,3.34,8.68,3.38,18.24,9.12,1.73,1,3.14,1.94,4.06,2.54a18.49,18.49,0,0,0,14.69,0l19.76-8.62a42.39,42.39,0,0,1,17.22-3Z"/></g></g></svg>