<svg xmlns="http://www.w3.org/2000/svg" viewBox="0 0 71 71"><defs><style>.cls-1{fill:#29344c;}</style></defs><g id="Layer_2" data-name="Layer 2"><g id="Layer_1-2" data-name="Layer 1"><path class="cls-1" d="M38.94,56.11H32.82a.49.49,0,0,1-.49-.49V40a.49.49,0,0,0-.49-.49l-15.61,0a.49.49,0,0,1-.49-.49V32.9a.49.49,0,0,1,.49-.49l15.61,0a.49.49,0,0,0,.49-.49V16.32a.49.49,0,0,1,.49-.49h6.12a.49.49,0,0,1,.49.49V31.94a.49.49,0,0,0,.49.49l15.61,0a.49.49,0,0,1,.49.49V39a.49.49,0,0,1-.49.49H39.92a.49.49,0,0,0-.49.49V55.62A.49.49,0,0,1,38.94,56.11Z"/><path class="cls-1" d="M35.5,0A35.5,35.5,0,1,0,71,35.5,35.5,35.5,0,0,0,35.5,0Zm0,64.1A28.6,28.6,0,1,1,64.1,35.5,28.61,28.61,0,0,1,35.5,64.1Z"/></g></g></svg>