<svg xmlns="http://www.w3.org/2000/svg" viewBox="0 0 208 124.86"><defs><style>.cls-1{fill:#29344c;}.cls-2{fill:#fff;}.cls-3{fill:#2491ae;}.cls-4{fill:#87d4f6;}</style></defs><g id="Layer_2" data-name="Layer 2"><g id="Layer_1-2" data-name="Layer 1"><path class="cls-1" d="M104.34,0C84.27,0,68,15.56,68,34.75s16.27,34.76,36.34,34.76S140.68,54,140.68,34.75,124.41,0,104.34,0Zm0,64.66c-17.24,0-31.23-13.32-31.23-29.74s14-29.74,31.23-29.74,31.23,13.32,31.23,29.74S121.58,64.66,104.33,64.66Z"/><path class="cls-1" d="M104.31.72c-11.68,0-21.14,15.21-21.14,34s9.46,34,21.14,34,21.13-15.22,21.13-34S116,.72,104.31.72Zm-.18,63.22c-9.12,0-16.52-13-16.52-29.08S95,5.79,104.13,5.79s16.52,13,16.52,29.07S113.26,63.94,104.13,63.94Z"/><path class="cls-1" d="M103.89,67.69a1.15,1.15,0,0,1-1.14-1,226.31,226.31,0,0,1,0-64.09,1.15,1.15,0,0,1,1.14-1h1.83a1.15,1.15,0,0,1,1.15,1.27,304.63,304.63,0,0,0,0,63.52,1.15,1.15,0,0,1-1.15,1.27Z"/><path class="cls-1" d="M139.06,28.3a1.15,1.15,0,0,0-2.1-.61c-4.84,6.9-17.53,11.82-32.42,11.82S77,34.59,72.11,27.69a1.15,1.15,0,0,0-2.1.61v.09a11.35,11.35,0,0,0,3.08,7.44,1.27,1.27,0,0,0,.25.22c7.4,5.08,18.54,8.31,31,8.31,13,0,24.6-3.53,32-9a1.42,1.42,0,0,0,.25-.24,11,11,0,0,0,2.48-6.72Z"/><path class="cls-1" d="M165.65,119.74H116.21a17.17,17.17,0,0,0-10.21,4.5,2.31,2.31,0,0,1-3.12,0,17.08,17.08,0,0,0-2.41-1.86,17.29,17.29,0,0,0-7.83-2.64H42.79a2.24,2.24,0,0,1-2.25-2.24V50.6a2.25,2.25,0,0,1,2.25-2.25H95.23a1.28,1.28,0,0,1,.47.1,18.67,18.67,0,0,0,8.74,1.67,18.88,18.88,0,0,0,6.75-1.66,1.08,1.08,0,0,1,.47-.11h55.15a1.13,1.13,0,0,1,.77.32,1.09,1.09,0,0,1,.32.78V117.5A2.24,2.24,0,0,1,165.65,119.74Z"/><path class="cls-2" d="M163.93,112.7a1.16,1.16,0,0,1-1.15,1.18H116.23a15.18,15.18,0,0,0-8.7,2.51,13.28,13.28,0,0,0-2.26,1.94,1.12,1.12,0,0,1-1.66,0,13.58,13.58,0,0,0-2.25-1.94,15.26,15.26,0,0,0-8.82-2.51H46.1A1.17,1.17,0,0,1,45,112.7V47.75a1.17,1.17,0,0,1,1.15-1.17H92.22a1.14,1.14,0,0,1,.54.14,24,24,0,0,0,23.26,0,1.15,1.15,0,0,1,.55-.14h46.21a1.16,1.16,0,0,1,1.15,1.17Z"/><path class="cls-1" d="M161.5,110.07a2.06,2.06,0,0,1-2.07,2.07H115.84a14.17,14.17,0,0,0-8.34,2.49A12.45,12.45,0,0,0,106,115.9a2.08,2.08,0,0,1-2.89,0,13,13,0,0,0-1.5-1.24,14.18,14.18,0,0,0-8.43-2.49H49.66a2.07,2.07,0,0,1-2.07-2.07V47.34a2.07,2.07,0,0,1,2.07-2.07H93l.3,0a22.9,22.9,0,0,1,8.32,2.89,19.12,19.12,0,0,1,1.63,1,2.06,2.06,0,0,0,2.5,0,15.5,15.5,0,0,1,1.36-1,18.05,18.05,0,0,1,8.72-2.91h43.63a2.06,2.06,0,0,1,2.07,2.07Z"/><path class="cls-3" d="M157.32,106.73a1.9,1.9,0,0,1-1.89,1.9H114.92a13.6,13.6,0,0,0-7.74,2.22,11.87,11.87,0,0,0-1.45,1.16,1.89,1.89,0,0,1-2.58,0,11.87,11.87,0,0,0-1.45-1.16,13.68,13.68,0,0,0-7.84-2.22H53.47a1.92,1.92,0,0,1-1.91-1.91V51.09a1.9,1.9,0,0,1,1.89-1.9H93.69l.28,0a21.94,21.94,0,0,1,7.73,2.57c.55.31,1.06.63,1.53.95a1.92,1.92,0,0,0,2.27,0,13.34,13.34,0,0,1,1.29-.92,17.21,17.21,0,0,1,8.1-2.58h40.52a1.92,1.92,0,0,1,1.91,1.91Z"/><rect class="cls-4" x="176.27" y="78.32" width="31.73" height="5.73" rx="2.44"/><rect class="cls-4" x="173.63" y="49.68" width="31.73" height="5.73" rx="2.44" transform="translate(-7.03 59.41) rotate(-17.5)"/><rect class="cls-4" y="78.32" width="31.73" height="5.73" rx="2.44"/><rect class="cls-4" x="149.14" y="25.46" width="31.73" height="5.73" rx="2.44" transform="translate(13.59 99.76) rotate(-35)"/><rect class="cls-4" x="173.63" y="105.64" width="31.73" height="5.73" rx="2.44" transform="translate(34.54 -45.35) rotate(15)"/><rect class="cls-4" x="28.23" y="25.67" width="31.73" height="5.73" rx="2.44" transform="translate(63.85 77.2) rotate(-145)"/><rect class="cls-4" x="2.18" y="49.88" width="31.73" height="5.73" rx="2.44" transform="translate(19.4 108.48) rotate(-162.5)"/><rect class="cls-4" x="0.42" y="105.85" width="31.73" height="5.73" rx="2.44" transform="translate(60.15 209.51) rotate(165)"/><rect class="cls-1" x="114" y="63.9" width="36" height="2.86" rx="1.09"/><rect class="cls-1" x="114" y="74.95" width="36" height="2.86" rx="1.09"/><rect class="cls-1" x="114" y="85" width="36" height="2.86" rx="1.09"/><rect class="cls-1" x="114" y="96.04" width="36" height="2.86" rx="1.09"/></g></g></svg>