<svg xmlns="http://www.w3.org/2000/svg" viewBox="0 0 188.65 120.54"><defs><style>.cls-1{fill:#29344c;}.cls-2{fill:#2491ae;}</style></defs><g id="Layer_2" data-name="Layer 2"><g id="Layer_1-2" data-name="Layer 1"><rect class="cls-1" x="24.71" y="33.77" width="128.51" height="2.49" rx="1.09"/><rect class="cls-1" x="24.71" y="43.37" width="93.91" height="2.49" rx="1.09"/><rect class="cls-1" x="24.71" y="52.98" width="84.03" height="2.49" rx="1.09"/><path class="cls-1" d="M165.73,0H12.21A2.32,2.32,0,0,0,9.89,2.32V97.08a2.32,2.32,0,0,0,2.32,2.32H165.73a2.32,2.32,0,0,0,2.32-2.32V2.32A2.32,2.32,0,0,0,165.73,0ZM33,4.43A1.14,1.14,0,0,1,34.09,3.3h3.76A1.14,1.14,0,0,1,39,4.43V8.2a1.14,1.14,0,0,1-1.14,1.14H34.09A1.14,1.14,0,0,1,33,8.2Zm-8.79,0A1.14,1.14,0,0,1,25.3,3.3h3.77a1.14,1.14,0,0,1,1.14,1.13V8.2a1.14,1.14,0,0,1-1.14,1.14H25.3A1.14,1.14,0,0,1,24.16,8.2Zm-8.78,0A1.14,1.14,0,0,1,16.52,3.3h3.76a1.14,1.14,0,0,1,1.14,1.13V8.2a1.14,1.14,0,0,1-1.14,1.14H16.52A1.14,1.14,0,0,1,15.38,8.2ZM162,92a2.28,2.28,0,0,1-2.32,2.23H17.7A2.28,2.28,0,0,1,15.38,92V18.7a2.27,2.27,0,0,1,2.32-2.22h142A2.27,2.27,0,0,1,162,18.7Z"/><path class="cls-2" d="M178.88,119.55,155,95.57a3.34,3.34,0,0,1,0-4.73l4-4.06a3.33,3.33,0,0,1,4.74,0l23.88,24a3.37,3.37,0,0,1,0,4.74l-4,4.06A3.36,3.36,0,0,1,178.88,119.55Z"/><path class="cls-2" d="M142.92,43.67a30.57,30.57,0,1,0,30.44,30.56A30.5,30.5,0,0,0,142.92,43.67Zm.13,50a19,19,0,1,1,18.89-19A18.92,18.92,0,0,1,143.05,93.68Z"/><rect class="cls-1" x="24.67" y="62.62" width="79.13" height="2.49" rx="1.09"/><rect class="cls-1" x="24.58" y="73.29" width="79.13" height="2.49" rx="1.09"/><path class="cls-1" d="M132.55,108.74H1a1,1,0,0,1-1-1V9.92a1,1,0,0,1,1-1H3.91a1,1,0,0,1,1,1v93.14a1,1,0,0,0,1,1L126.05,104a1,1,0,0,1,.49.12,40.86,40.86,0,0,0,5.81,2.52l.53.17A1,1,0,0,1,132.55,108.74Z"/></g></g></svg>