<svg xmlns="http://www.w3.org/2000/svg" viewBox="0 0 184.73 121.7"><defs><style>.cls-1{fill:#67a221;}.cls-2{fill:#0c4e3b;}.cls-3{fill:#29344c;}</style></defs><g id="Layer_2" data-name="Layer 2"><g id="Layer_1-2" data-name="Layer 1"><path class="cls-1" d="M148.88,40.39C144,40.3,139.53,45.06,137.05,52a56.73,56.73,0,0,0,13.52,1.63A56.59,56.59,0,0,0,163.94,52a27.2,27.2,0,0,0-2.31-3.14,38.08,38.08,0,0,0-3.6-3.58C155.69,43.23,152.51,40.45,148.88,40.39Z"/><path class="cls-1" d="M144.59,32.44a20.62,20.62,0,0,0-8-6.72,19,19,0,0,1,8.29,5.35,21,21,0,0,1,4,6.44,31.1,31.1,0,0,0-.07-4.46c-.11-1.39-.57-6.85-2.44-9.77-2.85-4.46-10.73-5.79-19.19-3.93-.14,1.61-.49,8,3.91,13.09a17.71,17.71,0,0,0,7.34,4.89,21.23,21.23,0,0,0,9,1.36A20.29,20.29,0,0,0,144.59,32.44Z"/><path class="cls-1" d="M184.5,9.53a42.72,42.72,0,0,0-19.75,1.52c-3,1-5.92,2-8.55,4.28-7.84,6.88-6.35,19.65-5.85,22.86a39.83,39.83,0,0,1,8.15-13.8,35.85,35.85,0,0,1,15.56-10,47.74,47.74,0,0,0-21.53,24.82l-.21,0c4.22.9,14.65,2.08,23.43-5.47C186.69,24.26,184.62,10.28,184.5,9.53Z"/><path class="cls-2" d="M137.59,54.85c-.48,8.15-2.83,26.45-16.73,39.48-24.23,22.73-66.13,13.15-88.34-4.88C17.86,77.54,3.58,55.29,9.73,45.89c1.75-2.68,4.88-3.89,7.73-4.48V36.94c-6.45,1-13,3.27-15.87,8.55-8.71,16.23,19.5,58.66,58.21,71.64,33.05,11.09,78.1,2.17,96.47-28.49,7.26-12.12,8.64-24.78,8.55-33.79A57.84,57.84,0,0,1,151,56.48,57.74,57.74,0,0,1,137.59,54.85Z"/><rect class="cls-3" x="30.77" y="51.29" width="22.09" height="11.34" rx="5.67" transform="translate(-28.39 48.94) rotate(-47.21)"/><rect class="cls-3" x="41.28" y="61.02" width="22.09" height="11.34" rx="5.67" transform="translate(-32.16 59.78) rotate(-47.21)"/><rect class="cls-3" x="51.79" y="70.75" width="22.09" height="11.34" rx="5.67" transform="translate(-35.93 70.61) rotate(-47.21)"/><rect class="cls-3" x="62.3" y="80.48" width="22.09" height="11.34" rx="5.67" transform="translate(-39.7 81.45) rotate(-47.21)"/><path class="cls-3" d="M40.12,46q-5.77,6.18-11.56,12.37c-15-12-16.14-34.2-4-46.86C35.79-.1,55.62-1,68.75,10.72L48.47,32.62a13.21,13.21,0,0,0,7.79,4.77,13.6,13.6,0,0,0,10.87-3L81,20.39Q98,35.78,115.08,51.18a5.75,5.75,0,0,1-7.7,8.32L82.88,37.63l-2,2.19L105,62.13a6.11,6.11,0,0,1-8.11,8.76L72.74,48.58l-1.62,1.76,24.09,22.3a6.29,6.29,0,0,1,.26,6.75,6.49,6.49,0,0,1-8.37,2C66,61.38,50.42,46.94,47.68,44.9a5.35,5.35,0,0,0-3-1.15A5.76,5.76,0,0,0,40.12,46Z"/><path class="cls-3" d="M53.5,31.59A7.88,7.88,0,0,0,57,34c4.54,1.48,8.61-2.3,8.77-2.45q7.32-7.47,14.63-14.93L117.11,49a29.54,29.54,0,0,0,4.64-33.13A29.64,29.64,0,0,0,94.11,0,30.6,30.6,0,0,0,75.6,7.71Z"/></g></g></svg>