<svg xmlns="http://www.w3.org/2000/svg" viewBox="0 0 74.89 48.96"><defs><style>.cls-1{fill:#29344c;}</style></defs><g id="Layer_2" data-name="Layer 2"><g id="Layer_1-2" data-name="Layer 1"><path class="cls-1" d="M72.11,8.9,40,38.33a.86.86,0,0,1-.75.21L4.49,31.22a.86.86,0,0,0-.66.13,3.76,3.76,0,0,0,.92,6.86l.12,0,36.36,8.3a.88.88,0,0,0,.79-.21L73.34,16.59a1.07,1.07,0,0,1,1.21,0,1.12,1.12,0,0,1,0,1.6L42.82,48.72a.83.83,0,0,1-.79.22L4.85,40.24l-.07,0A6.34,6.34,0,0,1,0,34.62a5.87,5.87,0,0,1,1.57-4l.07-.07L36.35.21A.85.85,0,0,1,37.1,0l34.61,7.4A.86.86,0,0,1,72.11,8.9Z"/></g></g></svg>