<svg xmlns="http://www.w3.org/2000/svg" viewBox="0 0 48 63.88"><defs><style>.cls-1{fill:#ffffff;}</style></defs><g id="Layer_2" data-name="Layer 2"><g id="Layer_1-2" data-name="Layer 1" transform="scale(0.85) translate(3.7, 4.79)"><path class="cls-1" d="M42.52,63.88H1.43A1.43,1.43,0,0,1,0,62.45V5a1.51,1.51,0,0,1,.08-.48A6.31,6.31,0,0,1,1.69,2,6.52,6.52,0,0,1,5.34.33h.14L46.22,0a1.43,1.43,0,0,1,1.44,1.43v.92Q47.84,28,48,53.67a1.41,1.41,0,0,1-1,1.39,1.53,1.53,0,0,1-.76,0,1.39,1.39,0,0,1-.9-1.34l.07-49.89a1.44,1.44,0,0,0-1.43-1.44H6.42A3.9,3.9,0,0,0,2.7,4.05a3.91,3.91,0,0,0-.33,3.38A4,4,0,0,0,4.82,9.72a1.43,1.43,0,0,0,.46.07H42.52A1.43,1.43,0,0,1,44,11.22V62.45A1.43,1.43,0,0,1,42.52,63.88Z"/></g></g></svg>